<?xml version="1.0" encoding="utf-8"?>
<!-- Generator: Adobe Illustrator 16.0.0, SVG Export Plug-In . SVG Version: 6.00 Build 0)  -->
<!DOCTYPE svg PUBLIC "-//W3C//DTD SVG 1.1//EN" "http://www.w3.org/Graphics/SVG/1.1/DTD/svg11.dtd">
<svg version="1.1" id="Vrstva_1" xmlns="http://www.w3.org/2000/svg" xmlns:xlink="http://www.w3.org/1999/xlink" x="0px" y="0px"
	 width="105.295px" height="93.875px" viewBox="0 0 105.295 93.875" enable-background="new 0 0 105.295 93.875"
	 xml:space="preserve">
<g>
	<g>
		<g opacity="0.4">
			<path fill="#FFFFFF" d="M8.538,93.125c-1.904,0-3.454-1.55-3.454-3.456V57.352c0,0-0.981-0.119-0.984-0.119
				c-1.807,0-3.35-1.547-3.35-3.448V16.041c0-1.905,1.549-3.455,3.453-3.455h30.078c0.67-2.39,1.813-4.816,3.112-6.588
				c3.549-4.847,9.241-5.248,15.255-5.248c6.041,0,11.76,0.409,15.329,5.351c1.422,1.969,2.434,4.148,3.012,6.485h30.102
				c1.904,0,3.454,1.55,3.454,3.455v37.744c0,1.904-1.55,3.454-3.454,3.454l-0.204,0.027v32.404c0,1.905-1.549,3.456-3.453,3.456
				H8.538z M64.714,12.394c-0.353-0.726-0.71-1.346-1.054-1.824c-2.641-3.653-4.475-3.998-8.669-3.998
				c-0.517,0-1.064,0.005-1.649,0.012l-1.661,0.011l-2.023-0.006c-3.764,0-5.157,0.257-7.253,3.314
				c-0.292,0.427-0.778,1.433-1.216,2.492H64.714z"/>
		</g>
		<path fill="#83B900" d="M52.648,1.5c6.06,0,11.426,0.478,14.721,5.04c1.443,1.999,2.49,4.303,3.023,6.796h5.573h6.519h18.606
			c1.487,0,2.704,1.217,2.704,2.705v37.744c0,1.487-1.217,2.704-2.704,2.704c0,0-0.343,0.044-0.954,0.12v33.061
			c0,1.488-1.216,2.706-2.703,2.706H8.538c-1.487,0-2.704-1.217-2.704-2.706V56.688c-1.041-0.125-1.631-0.199-1.631-0.199
			c-1.486,0-2.703-1.216-2.703-2.704V16.041c0-1.487,1.217-2.705,2.703-2.705h18.766h6.519h5.371
			c0.597-2.394,1.768-5.023,3.14-6.895C41.3,1.933,46.634,1.5,52.648,1.5 M51.681,5.845c-0.737,0-1.407-0.006-2.023-0.006
			c-3.828,0-5.538,0.236-7.871,3.64c-0.471,0.686-1.228,2.391-1.695,3.666h25.786c-0.488-1.153-1.038-2.219-1.607-3.011
			c-2.829-3.913-4.917-4.311-9.278-4.311c-0.724,0-1.51,0.011-2.371,0.019C52.295,5.844,51.982,5.845,51.681,5.845 M52.648,0
			c-6.214,0-12.104,0.425-15.86,5.555c-1.25,1.704-2.359,3.988-3.067,6.281h-4.233h-6.519H4.203C1.886,11.836,0,13.722,0,16.041
			v37.744c0,2.283,1.83,4.147,4.1,4.202c0.054,0.007,0.132,0.017,0.234,0.029v31.653c0,2.319,1.886,4.206,4.204,4.206h88.896
			c2.317,0,4.203-1.887,4.203-4.206V57.953c2.062-0.269,3.658-2.036,3.658-4.168V16.041c0-2.318-1.886-4.205-4.204-4.205H82.484
			h-6.519h-4.398c-0.619-2.216-1.62-4.288-2.982-6.175C64.812,0.437,58.644,0,52.648,0L52.648,0z M51.681,7.345
			c0.306,0,0.623-0.001,0.953-0.004l0.717-0.007c0.582-0.006,1.127-0.012,1.641-0.012c4.077,0,5.603,0.286,8.063,3.689
			c0.135,0.187,0.271,0.398,0.41,0.632H42.333c0.269-0.583,0.521-1.069,0.69-1.317c1.961-2.861,3.074-2.988,6.634-2.988l0.914,0.002
			C50.924,7.343,51.293,7.345,51.681,7.345L51.681,7.345z"/>
	</g>
	<path fill="none" stroke="#83B900" stroke-miterlimit="10" d="M82.458,13.312v55.445c0,1.785-1.463,3.246-3.247,3.246h-0.025
		c-1.786,0-3.248-1.461-3.248-3.246V13.312 M29.461,13.312v55.445c0,1.785-1.463,3.246-3.247,3.246h-0.025
		c-1.785,0-3.248-1.461-3.248-3.246V13.312 M34.874,13.309c0.543-2.537,1.615-4.872,3.096-6.893
		c3.302-4.509,8.636-4.941,14.652-4.941c6.058,0,11.424,0.478,14.719,5.04c1.445,1.999,2.492,4.305,3.027,6.8 M39.997,13.312
		c0.368-1.218,1.207-2.817,1.789-3.666c2.863-4.177,4.787-3.584,10.836-3.638c6.058-0.055,8.352-0.27,11.647,4.293
		c0.571,0.793,1.123,1.859,1.608,3.013 M5.808,56.464v33.181c0,1.488,1.218,2.705,2.704,2.705h88.894
		c1.487,0,2.703-1.216,2.703-2.705V56.464 M29.461,59.076c5.234,0.436,10.699,0.817,15.784,1.028 M82.458,58.512
		c10.433-0.995,18.604-2.048,18.604-2.048c1.487,0,2.704-1.217,2.704-2.704V16.016c0-1.488-1.217-2.705-2.704-2.705H4.177
		c-1.488,0-2.705,1.216-2.705,2.705V53.76c0,1.487,1.217,2.704,2.705,2.704c0,0,8.251,1.038,18.762,2.032 M60.153,60.122
		c5.086-0.203,10.553-0.581,15.784-1.021 M60.154,65.291H45.245v-10.02h14.909V65.291z"/>
</g>
</svg>
