<?xml version="1.0" encoding="utf-8"?>
<!-- Generator: Adobe Illustrator 16.0.0, SVG Export Plug-In . SVG Version: 6.00 Build 0)  -->
<!DOCTYPE svg PUBLIC "-//W3C//DTD SVG 1.1//EN" "http://www.w3.org/Graphics/SVG/1.1/DTD/svg11.dtd">
<svg version="1.1" id="Vrstva_1" xmlns="http://www.w3.org/2000/svg" xmlns:xlink="http://www.w3.org/1999/xlink" x="0px" y="0px"
	 width="16.358px" height="16.42px" viewBox="0 0 16.358 16.42" enable-background="new 0 0 16.358 16.42" xml:space="preserve">
<g>
	<path fill-rule="evenodd" clip-rule="evenodd" fill="#252525" d="M8.143,16.403c-2.312,0-4.623,0.001-6.936-0.001
		c-0.868-0.001-1.363-0.627-1.162-1.477c0.094-0.396,0.203-0.788,0.319-1.178c0.28-0.942,1.109-1.519,2.182-1.52
		c3.069-0.001,6.139-0.001,9.207,0c0.782,0,1.564-0.009,2.345,0.021c0.812,0.032,1.597,0.646,1.848,1.42
		c0.146,0.45,0.271,0.907,0.378,1.368c0.164,0.707-0.252,1.281-0.971,1.366c-0.107,0.013-0.216,0.016-0.323,0.016
		c-2.296,0.001-4.591,0.001-6.887,0.001C8.143,16.414,8.143,16.409,8.143,16.403z"/>
	<path fill-rule="evenodd" clip-rule="evenodd" fill="#252525" d="M8.177,11.296c-2.32,0-4.64,0-6.96,0
		c-0.639,0-0.866-0.23-0.866-0.875c0-3.185,0-6.37,0-9.555C0.351,0.221,0.573,0,1.221,0c4.64,0,9.28,0,13.92,0
		c0.646,0,0.865,0.221,0.865,0.87c0,3.193,0,6.387,0,9.58c0,0.608-0.237,0.846-0.843,0.846
		C12.834,11.296,10.506,11.296,8.177,11.296z M1.674,9.958c4.351,0,8.675,0,13,0c0-2.888,0-5.753,0-8.622c-4.342,0-8.667,0-13,0
		C1.674,4.215,1.674,7.075,1.674,9.958z"/>
</g>
</svg>
