<?xml version="1.0" encoding="utf-8"?>
<!-- Generator: Adobe Illustrator 16.0.0, SVG Export Plug-In . SVG Version: 6.00 Build 0)  -->
<!DOCTYPE svg PUBLIC "-//W3C//DTD SVG 1.1//EN" "http://www.w3.org/Graphics/SVG/1.1/DTD/svg11.dtd">
<svg version="1.1" id="Vrstva_1" xmlns="http://www.w3.org/2000/svg" xmlns:xlink="http://www.w3.org/1999/xlink" x="0px" y="0px"
	 width="16.556px" height="16.203px" viewBox="0 0 16.556 16.203" enable-background="new 0 0 16.556 16.203" xml:space="preserve">
<g>
	<path fill="#252525" d="M10.539,5.436c0-0.152,0.027-0.56,0.083-1.224h1.369L11.68,7.075c-0.055,0.733-0.082,1.328-0.082,1.784
		c0,1.397,0.455,2.095,1.369,2.095c0.607,0,1.116-0.335,1.524-1.006c0.407-0.671,0.612-1.539,0.612-2.604
		c0-1.88-0.585-3.344-1.754-4.388c-1.168-1.044-2.7-1.567-4.596-1.567c-1.894,0-3.564,0.695-5.01,2.085S1.576,6.566,1.576,8.579
		c0,2.013,0.564,3.552,1.691,4.616c1.127,1.065,2.44,1.598,3.941,1.598S10,14.495,11.079,13.9l-0.083,1.598
		c-0.928,0.47-2.145,0.705-3.651,0.705c-2.256,0-4.043-0.708-5.364-2.126C0.66,12.659,0,10.851,0,8.651
		c0-2.476,0.871-4.537,2.613-6.183C4.357,0.823,6.466,0,8.941,0c2.13,0,3.932,0.664,5.405,1.992
		c1.473,1.328,2.209,3.078,2.209,5.249c0,1.591-0.373,2.829-1.12,3.713c-0.746,0.886-1.598,1.328-2.552,1.328
		c-1.272,0-2.082-0.594-2.428-1.784c-0.732,1.231-1.757,1.846-3.07,1.846c-1.024,0-1.83-0.363-2.417-1.089
		c-0.588-0.726-0.882-1.673-0.882-2.842s0.384-2.179,1.151-3.029S6.95,4.108,8.07,4.108C9.191,4.108,10.014,4.55,10.539,5.436z
		 M5.643,8.496c0,0.796,0.188,1.411,0.561,1.847s0.847,0.653,1.422,0.653c0.573,0,1.105-0.193,1.597-0.581
		c0.49-0.387,0.847-0.926,1.069-1.619c0.026-0.498,0.054-0.878,0.082-1.141c-0.222-1.452-0.969-2.178-2.24-2.178
		c-0.719,0-1.314,0.305-1.785,0.913C5.877,6.999,5.643,7.701,5.643,8.496z"/>
</g>
</svg>
