<?xml version="1.0" encoding="utf-8"?>
<!-- Generator: Adobe Illustrator 16.0.0, SVG Export Plug-In . SVG Version: 6.00 Build 0)  -->
<!DOCTYPE svg PUBLIC "-//W3C//DTD SVG 1.1//EN" "http://www.w3.org/Graphics/SVG/1.1/DTD/svg11.dtd">
<svg version="1.1" id="Vrstva_1" xmlns="http://www.w3.org/2000/svg" xmlns:xlink="http://www.w3.org/1999/xlink" x="0px" y="0px"
	 width="87.5px" height="106.5px" viewBox="0 0 87.5 106.5" enable-background="new 0 0 87.5 106.5" xml:space="preserve">
<g>
	<g>
		<path fill="#83B900" d="M32.38,3.783c0.393,1.027,0.785,2.057,1.2,3.151c-1.575,0.741-3.042,1.434-4.633,2.183
			c0.511,0.903,0.954,1.685,1.395,2.463c5.657-2.887,11.412-4.17,16.939-4.171c13.365,0,25.405,7.505,31.562,17.988
			c8.658,14.743,6.359,37.649-12.215,49.39c0.427,0.742,0.857,1.488,1.39,2.41c1.498-1.027,2.91-1.996,4.41-3.025
			c0.715,0.883,1.413,1.742,2.166,2.671c-7.381,5.985-15.723,9.099-25.089,9.709c0,1.358,0,2.623,0,3.942
			c0.451,0.085,0.878,0.166,1.414,0.268c0,1.184,0,2.295,0,3.622c2.602,0,5.082,0,7.6,0c0.07,0.907,0.125,1.605,0.193,2.461
			c5.273,0,10.482,0,15.802,0c0,1.724,0,3.284,0,4.974c-17.985,0-36,0-54.095,0c0-1.596,0-3.164,0-4.934c5.265,0,10.463,0,15.734,0
			c0.066-0.891,0.12-1.589,0.183-2.436c2.487,0,4.933,0,7.553,0c0-1.304,0-2.457,0-3.669c0.585-0.118,1.012-0.202,1.473-0.294
			c0-1.305,0-2.57,0-3.831C21.381,85.19,5.954,65.856,4.733,46.792C3.399,25.98,16.666,9.352,32.38,3.783 M47.507,83.007
			c6.471,0,12.843-1.587,18.357-4.715c-0.438-0.785-0.876-1.569-1.353-2.423c-5.604,2.865-11.424,4.187-17.07,4.187
			c-12.555,0-24.263-6.529-30.897-17.137C6.88,47.464,9.881,24.427,28.266,12.751c-0.455-0.773-0.915-1.549-1.372-2.325
			c-16.939,10-24.848,33.646-13.202,53.334C21.357,76.717,34.627,83.007,47.507,83.007 M33.552,1.246l-1.84,0.652
			C16.708,7.215,1.241,23.571,2.737,46.92c1.19,18.582,15.793,39.119,40.624,41.581v0.346l-1.473,0.297v1.637v1.669h-5.553h-1.857
			l-0.137,1.853l-0.044,0.583H20.419h-2v2v4.934v2h2h54.095h2v-2v-4.974v-2h-2H60.561c-0.016-0.196-0.031-0.4-0.048-0.615
			l-0.144-1.846h-1.851h-5.6v-1.622v-1.656l-1.414-0.269v-0.444c9.227-0.926,17.209-4.206,24.349-9.996l1.554-1.26l-1.26-1.554
			l-0.873-1.076l-1.292-1.594l-0.618-0.763c14.281-13.115,15.295-33.987,7.203-47.766C73.798,12.857,60.732,5.409,47.282,5.409
			C43.392,5.41,39.555,6.003,35.812,7.18L35.45,6.226c-0.416-1.097-0.809-2.127-1.202-3.156L33.552,1.246L33.552,1.246z"/>
	</g>
	<g>
		<path fill-rule="evenodd" clip-rule="evenodd" fill="none" stroke="#83B900" stroke-miterlimit="10" d="M83.038,50.753
			c-0.489,0.284-1.115,0.46-1.505,0.321c-0.908-0.32-1.083-1.315-0.748-2.261c-1.604-1.048-3.538-0.514-4.313,1.171
			c-0.555,1.199-1.121,2.394-1.646,3.606c-0.165,0.38-0.223,0.808-0.315,1.218c-0.024,0.108,0.055,0.298,0.002,0.338
			c-1.112,0.829-2.203,2.27-3.364,2.332c-2.449,0.129-3.725,1.324-3.021,3.724c0.141,0.484,0.398,0.945,0.468,1.436
			c0.068,0.46,0.119,1.063-0.12,1.38c-0.188,0.251-0.957,0.357-1.235,0.174c-0.39-0.255-0.599-0.823-0.807-1.292
			c-0.075-0.163,0.079-0.428,0.087-0.472c-1.446-1.482-2.817-2.82-2.81-4.979c0.007-2.248-1.048-3.387-3.3-3.776
			c-0.458-0.08-0.947-0.478-1.252-0.863c-0.84-1.068-1.589-2.21-2.381-3.317c-0.063-0.088-0.18-0.138-0.268-0.202
			c-1.467,1.203-1.441,1.447-0.645,3.049c1.024,2.061,2.405,3.67,4.561,4.6c0.854,0.369,1.484,1.628,1.482,2.61
			c-0.371-0.148-0.715-0.285-0.979-0.392c-0.101,0.695-0.069,1.433-0.333,2.042c-0.243,0.557-0.806,0.974-1.333,1.369
			c-0.341,0.458-0.597,1.171-1.043,1.324c-1.003,0.347-1.634-0.35-2.187-1.389c1.034-0.408,2.01-0.791,3.14-1.236
			c0.125-0.971-0.216-1.873-1.393-2.517c-1.117-0.613-2.119-1.434-3.179-2.155c-1.078-0.735-1.806-1.65-1.857-3.044
			c-0.012-0.313-0.411-0.721-0.733-0.896c-0.942-0.508-3.081,0.126-3.964,0.743c-0.748,0.523-1.74,0.805-2.663,0.939
			c-1.042,0.154-1.574,0.491-1.653,1.623c-0.03,0.45-0.505,1.082-0.931,1.256c-1.584,0.646-2.278,1.787-2.775,3.394
			c-0.403,1.306-1.41,2.442-2.253,3.577c-0.221,0.3-0.816,0.365-1.258,0.449c-0.977,0.186-1.96,0.343-2.95,0.451
			c-0.356,0.039-0.952,0.023-1.062-0.175c-0.494-0.893-1.283-0.742-2.041-0.728c-0.947,0.02-1.335-0.452-1.333-1.358
			c0.008-2.57,0.011-5.141-0.002-7.71c-0.003-0.988,0.467-1.394,1.44-1.382c2.219,0.024,4.44-0.019,6.658,0.023
			c0.696,0.012,1.05-0.221,1.286-0.873c0.43-1.185,1.169-2.291,0.152-3.569c-0.752-0.947-1.38-1.991-2.035-3.011
			c-0.233-0.361-0.561-0.793-0.519-1.157c0.033-0.296,0.53-0.564,0.859-0.795c0.407-0.286,0.849-0.527,1.282-0.776
			c0.26-0.148,0.564-0.427,0.795-0.381c0.86,0.17,1.276-0.318,1.7-0.917c0.88-1.243,1.783-2.454,3.438-2.77
			c0.28-0.054,0.548-0.399,0.734-0.669c0.463-0.672,0.888-1.37,1.31-2.071c0.64-1.065,1.127-2.055,2.818-1.815
			c1.463,0.205,1.832-0.68,1.286-2.108c-0.673-1.769-1.507-3.51-0.726-5.499c0.349-0.887,1.23-1.605,2.117-1.429
			c0.93,0.186,0.973,0.95,0.875,1.651c-0.143,1.019-0.316,2.051-0.645,3.02c-0.496,1.476,0.3,2.654,1.831,2.542
			c1.8-0.131,1.8-0.131,3.408,2.284c0.147-0.139,0.286-0.203,0.305-0.294c0.422-1.93,1.92-2.431,3.582-2.776
			c0.568-0.118,0.932-0.219,1.391,0.357c0.568,0.714,2.218,0.233,2.495-0.654c0.405-1.297,0.787-2.602,1.129-3.917
			c0.603-2.325,0.908-2.459,2.84-1.07c0.786-0.763,1.074-1.496,0.439-2.603c-0.969-1.693-0.132-2.956,1.831-2.962
			c0.967-0.004,3.088-1.112,4.054-1.112"/>
		<path fill-rule="evenodd" clip-rule="evenodd" fill="none" stroke="#83B900" stroke-miterlimit="10" d="M63.835,11.418
			c-2.871,1.915-3.041,5.174-3.574,8.402c0.418-0.053,0.734-0.165,1.021-0.113c0.466,0.082,1.223,0.172,1.305,0.433
			c0.206,0.649,0.18,1.473-0.828,1.575c-1.199,0.121-1.577,0.786-1.585,1.93c-0.01,1.241-0.285,2.48-0.287,3.722
			c-0.001,1.228-0.398,1.975-1.579,2.514c-2.143,0.979-1.811,1.081-2.66-0.974c-1.023-2.473-2.042-4.949-3.102-7.516
			c-0.143,0.252-0.222,0.385-0.291,0.521c-0.366,0.709-0.586,1.863-1.123,2.037c-1.062,0.343-2.299,0.195-3.459,0.147
			c-0.715-0.03-0.684-0.547-0.524-1.12c0.519-1.866,0.994-3.744,1.516-5.722c-0.308,0.025-0.523,0.064-0.739,0.057
			c-0.494-0.019-1.281,0.116-1.429-0.125c-0.375-0.621-0.693-1.382,0.046-2.113c0.91-0.901,1.647-1.996,2.623-2.814
			c0.713-0.599,1.683-0.898,2.553-1.304c0.454-0.213,0.935-0.365,1.416-0.55c-1.021-1.38-0.982-1.574,0.226-2.568"/>
		<path fill-rule="evenodd" clip-rule="evenodd" fill="none" stroke="#83B900" stroke-miterlimit="10" d="M74.203,18.438
			c-0.295,0.359-0.848,0.591-1.323,0.703c-1.196,0.281-2.413,0.497-3.631,0.666c-0.409,0.058-0.906,0-1.262-0.191
			c-1.412-0.759-1.924-1.961-2.071-3.588c-0.107-1.209-0.022-2.271,0.389-3.232"/>
		<path fill-rule="evenodd" clip-rule="evenodd" fill="none" stroke="#83B900" stroke-miterlimit="10" d="M35.899,32.022
			c-1.734,0.276-1.57,0.257-1.767-1.437c-0.124-1.09-0.713-2.177-1.284-3.15c-0.973-1.656,0.509-2.522,1.123-3.585
			c0.25-0.437,1.286-0.419,1.965-0.606c0.069,0.127,0.14,0.255,0.211,0.383c-0.263,0.486-0.525,0.974-0.787,1.46
			c2.525,1.152,2.525,1.152,0.972,3.889c2.604,1.601,3.932,3.938,3.735,6.803c0.682,0.22,1.365,0.252,1.473,0.518
			c0.191,0.474,0.206,1.163-0.004,1.629c-0.639,1.43-1.541,2.556-3.398,2.357c-0.887-0.095-1.651,0.188-2.371,0.922
			c-0.807,0.824-1.663,0.045-2.7-0.426c1.188-0.647,2.146-1.17,3.111-1.697c-0.126-0.209-0.151-0.306-0.191-0.312
			c-2.476-0.391-1.981-0.943-0.792-2.279C36.414,35.121,36.387,35.096,35.899,32.022z"/>
		<path fill-rule="evenodd" clip-rule="evenodd" fill="none" stroke="#83B900" stroke-miterlimit="10" d="M31.79,31.007
			c0.779,0.008,1.456,1.505,1.203,2.499c-0.215,0.839-0.36,1.702-0.45,2.563c-0.079,0.756-3.444,3.068-4.16,2.795
			c-0.692-0.263-0.917-1.022-0.358-1.569c0.661-0.646,0.503-1.217,0.305-2.025C27.727,32.82,28.93,31.258,31.79,31.007z"/>
		<path fill-rule="evenodd" clip-rule="evenodd" fill="none" stroke="#83B900" stroke-miterlimit="10" d="M51.838,55.661
			c-0.021,0.478-0.041,0.955-0.065,1.432c-0.015,0.256-0.151,0.579-0.043,0.753c0.912,1.452-0.335,1.726-1.139,2.273
			c-0.953-1.205-0.957-1.74-0.154-2.772c0.149-0.191,0.033-0.576,0.16-0.806c0.218-0.395,0.531-0.737,0.804-1.102
			C51.546,55.514,51.69,55.588,51.838,55.661z"/>
	</g>
	
		<line fill-rule="evenodd" clip-rule="evenodd" fill="none" stroke="#83B900" stroke-miterlimit="10" x1="36.106" y1="96.445" x2="58.906" y2="96.405"/>
	
		<line fill-rule="evenodd" clip-rule="evenodd" fill="none" stroke="#83B900" stroke-miterlimit="10" x1="43.693" y1="94.01" x2="50.983" y2="93.944"/>
	<path fill-rule="evenodd" clip-rule="evenodd" fill="none" stroke="#83B900" stroke-miterlimit="10" d="M45.361,87.108
		c0,0,2.562,0.052,4.521-0.129"/>
</g>
</svg>
