<?xml version="1.0" encoding="utf-8"?>
<!-- Generator: Adobe Illustrator 16.0.0, SVG Export Plug-In . SVG Version: 6.00 Build 0)  -->
<!DOCTYPE svg PUBLIC "-//W3C//DTD SVG 1.1//EN" "http://www.w3.org/Graphics/SVG/1.1/DTD/svg11.dtd">
<svg version="1.1" id="Vrstva_1" xmlns="http://www.w3.org/2000/svg" xmlns:xlink="http://www.w3.org/1999/xlink" x="0px" y="0px"
	 width="53.716px" height="31.322px" viewBox="0 0 53.716 31.322" enable-background="new 0 0 53.716 31.322" xml:space="preserve">
<g>
	<path fill-rule="evenodd" clip-rule="evenodd" fill="none" stroke="#83B900" stroke-width="1.17" stroke-miterlimit="10" d="
		M27.318,23.453c2.848-2.809,4.409-5.918,4.298-9.706c-0.111-3.799-1.868-6.799-4.818-9.386c0.923-0.589,1.748-1.24,2.672-1.686
		c6.281-3.027,12.466-2.864,18.238,1.13c7.549,5.227,7.128,15.228-0.71,20.157c-2.591,1.627-5.426,2.459-8.482,2.604
		c-0.51,0.024-1.059,0.208-1.502,0.467c-1.405,0.814-2.769,1.701-4.15,2.557c-0.234,0.146-0.474,0.279-0.897,0.526
		c0.374-1.487,0.694-2.771,0.989-3.946C31.069,25.261,29.271,24.395,27.318,23.453z"/>
	<path fill-rule="evenodd" clip-rule="evenodd" fill="#83B900" d="M11.754,9.898c-1.049,0-2.03,0-3.029,0c0,0.29,0,0.564,0,0.916
		c0.988,0.052,1.944,0.1,2.92,0.15c0,0.404-0.021,0.769,0.006,1.129c0.056,0.715-0.171,1.15-0.878,1.514
		c-1.479,0.756-2.396,2.026-2.567,3.707c-0.198,1.952,1.262,3.116,3.042,2.31c1.027-0.465,2.021-1.219,2.747-2.081
		c0.959-1.139,1.641-2.509,2.457-3.807c1.502,0.387,2.28,1.122,2.306,2.337c0.026,1.292-0.676,2.185-1.791,2.678
		c-0.915,0.403-1.911,0.624-3.146,1.015c0.461,0.299,0.865,0.769,1.138,0.702c1.038-0.254,2.104-0.558,3.033-1.072
		c1.347-0.747,2.039-1.992,1.846-3.575c-0.184-1.489-1.128-2.373-2.497-2.86c-0.202-0.072-0.395-0.177-0.61-0.275
		c0.123-0.365,0.23-0.683,0.355-1.054c-0.337-0.109-0.646-0.209-0.995-0.322c-0.107,0.33-0.158,0.618-0.294,0.855
		c-0.096,0.165-0.301,0.354-0.474,0.369c-0.861,0.084-1.728,0.114-2.679,0.168c0.049-0.592,0.098-1.173,0.145-1.731
		c1.953-0.239,3.808-0.469,5.655-0.695c0-0.438,0-0.741,0-0.997c-1.872,0.245-3.709,0.487-5.625,0.738
		c0.096-0.827,0.164-1.415,0.24-2.078C12.663,7.902,12.34,7.871,11.99,7.84C11.907,8.561,11.833,9.21,11.754,9.898z M11.665,14.074
		c0.109,1.279,0.298,2.439,0.253,3.592c-0.015,0.327-0.664,0.725-1.1,0.914c-0.481,0.208-1.06,0.137-1.29-0.462
		c-0.134-0.354-0.222-0.793-0.144-1.152C9.668,15.687,10.424,14.739,11.665,14.074z M12.599,13.652
		c0.964-0.11,1.77-0.203,2.575-0.296c0.072,0.08,0.145,0.161,0.217,0.241c-0.758,1.25-1.515,2.498-2.273,3.747
		c-0.099-0.028-0.197-0.056-0.297-0.085C12.749,16.104,12.679,14.947,12.599,13.652z M40.264,14.85c-1.855,0-3.536,0-5.365,0
		c0.879-2.133,1.729-4.195,2.67-6.477C38.5,10.61,39.358,12.673,40.264,14.85z M43.423,19.107c-0.006-0.072,0.007-0.135-0.015-0.183
		c-1.641-3.843-3.276-7.688-4.952-11.515c-0.091-0.211-0.524-0.387-0.789-0.374c-0.261,0.013-0.643,0.225-0.744,0.45
		c-1.091,2.44-2.137,4.9-3.195,7.354c-0.611,1.418-1.224,2.837-1.832,4.24c1.032,0.341,1.503-0.075,1.749-0.959
		c0.151-0.542,0.457-1.042,0.633-1.581c0.162-0.496,0.458-0.628,0.952-0.611c1.055,0.034,2.11,0.01,3.164,0.01
		c2.413,0,2.457-0.017,3.335,2.251C42.058,19.041,42.49,19.386,43.423,19.107z"/>
	<path fill-rule="evenodd" clip-rule="evenodd" fill="none" stroke="#83B900" stroke-width="1.17" stroke-miterlimit="10" d="
		M20.017,29.998c-0.977-0.642-1.872-1.144-2.666-1.77c-1.521-1.203-3.219-1.687-5.146-1.932c-3.921-0.498-7.176-2.373-9.518-5.622
		C-0.747,15.909,0.109,9.512,4.653,5.57c5.702-4.945,14.796-4.941,20.258,0.007c5.776,5.233,5.334,13.505-1.007,18.057
		c-1.009,0.724-2.156,1.272-3.286,1.803c-0.469,0.222-0.626,0.442-0.612,0.937C20.039,27.53,20.017,28.689,20.017,29.998z"/>
</g>
</svg>
