<?xml version="1.0" encoding="utf-8"?>
<!-- Generator: Adobe Illustrator 16.0.0, SVG Export Plug-In . SVG Version: 6.00 Build 0)  -->
<!DOCTYPE svg PUBLIC "-//W3C//DTD SVG 1.1//EN" "http://www.w3.org/Graphics/SVG/1.1/DTD/svg11.dtd">
<svg version="1.1" id="Vrstva_1" xmlns="http://www.w3.org/2000/svg" xmlns:xlink="http://www.w3.org/1999/xlink" x="0px" y="0px"
	 width="49.962px" height="35.212px" viewBox="0 0 49.962 35.212" enable-background="new 0 0 49.962 35.212" xml:space="preserve">
<g>
	<g>
		<path fill-rule="evenodd" clip-rule="evenodd" fill="none" stroke="#83B900" stroke-miterlimit="10" d="M8.895,25.971
			c-0.791,0-1.528,0-2.303,0c0,0.932-0.024,1.869,0.006,2.807c0.05,1.501,0.142,3,0.202,4.502c0.03,0.75-0.47,1.342-1.164,1.413
			c-0.732,0.075-1.386-0.398-1.437-1.177c-0.125-1.937-0.226-3.876-0.263-5.816c-0.044-2.278-0.01-4.557-0.01-6.835
			c-0.043-0.01-0.085-0.02-0.126-0.028c-0.226,0.783-0.477,1.559-0.668,2.351c-0.199,0.817-0.334,1.649-0.505,2.477
			c-0.092,0.439-0.372,0.715-0.802,0.819c-0.407,0.1-0.823,0.026-1.047-0.321c-0.178-0.275-0.313-0.664-0.272-0.979
			c0.229-1.894,0.723-3.725,1.405-5.511c0.724-1.892,2.028-2.938,4.057-3.165c1.611-0.18,3.195-0.207,4.767,0.241
			c0.887,0.254,1.556,0.77,2.032,1.563c0.983,1.643,1.484,3.455,1.894,5.301c0.105,0.478,0.206,0.957,0.295,1.438
			c0.135,0.746-0.204,1.326-0.831,1.444c-0.661,0.123-1.147-0.243-1.33-0.995c-0.312-1.274-0.627-2.549-0.944-3.822
			c-0.039-0.154-0.103-0.302-0.234-0.438c-0.012,0.127-0.031,0.253-0.033,0.379c-0.058,3.139-0.108,6.279-0.175,9.419
			c-0.018,0.792-0.07,1.586-0.143,2.375c-0.077,0.861-0.648,1.357-1.436,1.294c-0.751-0.063-1.224-0.696-1.188-1.544
			c0.092-2.227,0.169-4.452,0.25-6.678C8.898,26.319,8.895,26.154,8.895,25.971z"/>
		<path fill-rule="evenodd" clip-rule="evenodd" fill="none" stroke="#83B900" stroke-miterlimit="10" d="M7.736,15.564
			c-2.287,0.004-4.142-1.845-4.164-4.149C3.549,9.15,5.427,7.249,7.71,7.227c2.273-0.023,4.216,1.908,4.205,4.185
			C11.905,13.681,10.013,15.563,7.736,15.564z"/>
	</g>
	<g>
		<path fill-rule="evenodd" clip-rule="evenodd" fill="none" stroke="#83B900" stroke-miterlimit="10" d="M24.639,27.47
			c-0.654,0-1.266,0-1.906,0c0,0.771-0.021,1.549,0.005,2.325c0.04,1.243,0.117,2.486,0.167,3.729
			c0.025,0.623-0.391,1.113-0.966,1.171c-0.606,0.063-1.147-0.33-1.189-0.975c-0.104-1.604-0.186-3.212-0.217-4.819
			c-0.037-1.888-0.009-3.776-0.009-5.663c-0.034-0.008-0.07-0.016-0.104-0.023c-0.188,0.649-0.396,1.291-0.555,1.946
			c-0.165,0.68-0.276,1.369-0.418,2.054c-0.076,0.364-0.308,0.593-0.664,0.679c-0.338,0.082-0.683,0.021-0.868-0.268
			c-0.146-0.227-0.258-0.549-0.227-0.811c0.191-1.569,0.599-3.086,1.166-4.565c0.599-1.566,1.68-2.435,3.36-2.623
			c1.335-0.148,2.647-0.172,3.949,0.2c0.735,0.21,1.29,0.637,1.685,1.296c0.815,1.36,1.229,2.862,1.568,4.392
			c0.088,0.396,0.172,0.792,0.244,1.19c0.112,0.619-0.169,1.1-0.687,1.197c-0.549,0.103-0.951-0.2-1.104-0.823
			c-0.26-1.057-0.52-2.112-0.783-3.168c-0.031-0.128-0.084-0.25-0.194-0.362c-0.01,0.105-0.025,0.21-0.028,0.314
			c-0.047,2.601-0.089,5.202-0.144,7.803c-0.014,0.658-0.059,1.314-0.116,1.97c-0.064,0.712-0.539,1.124-1.191,1.071
			c-0.622-0.052-1.013-0.577-0.983-1.279c0.076-1.845,0.141-3.688,0.208-5.534C24.644,27.758,24.639,27.62,24.639,27.47z"/>
		<path fill-rule="evenodd" clip-rule="evenodd" fill="none" stroke="#83B900" stroke-miterlimit="10" d="M23.68,18.848
			c-1.895,0.004-3.431-1.529-3.45-3.438c-0.019-1.877,1.538-3.451,3.428-3.47c1.885-0.02,3.492,1.581,3.484,3.467
			C27.134,17.286,25.565,18.846,23.68,18.848z"/>
	</g>
	<g>
		<path fill-rule="evenodd" clip-rule="evenodd" fill="none" stroke="#83B900" stroke-miterlimit="10" d="M41.881,23.832
			c-0.984,0-1.903,0-2.865,0c0,1.159-0.031,2.327,0.007,3.492c0.061,1.869,0.176,3.735,0.251,5.604
			c0.038,0.936-0.585,1.67-1.448,1.759c-0.912,0.093-1.726-0.495-1.788-1.464c-0.156-2.41-0.28-4.825-0.327-7.24
			c-0.054-2.836-0.013-5.673-0.013-8.51c-0.052-0.011-0.105-0.022-0.157-0.034c-0.281,0.976-0.593,1.941-0.831,2.926
			c-0.249,1.019-0.416,2.056-0.628,3.084c-0.114,0.547-0.463,0.891-0.999,1.021c-0.507,0.123-1.022,0.032-1.305-0.401
			c-0.22-0.343-0.387-0.826-0.339-1.218c0.288-2.358,0.899-4.637,1.751-6.86c0.9-2.354,2.524-3.657,5.049-3.939
			c2.006-0.225,3.978-0.258,5.934,0.301c1.104,0.314,1.937,0.956,2.529,1.945c1.225,2.045,1.849,4.3,2.356,6.598
			c0.133,0.596,0.259,1.19,0.367,1.789c0.169,0.931-0.254,1.653-1.032,1.799c-0.825,0.154-1.43-0.302-1.657-1.237
			c-0.389-1.586-0.781-3.173-1.176-4.758c-0.048-0.192-0.128-0.375-0.293-0.544c-0.013,0.156-0.037,0.313-0.039,0.471
			c-0.073,3.908-0.135,7.816-0.218,11.724c-0.021,0.987-0.087,1.973-0.176,2.956c-0.098,1.072-0.81,1.69-1.788,1.61
			c-0.937-0.076-1.523-0.866-1.479-1.921c0.115-2.771,0.211-5.541,0.313-8.313C41.887,24.267,41.881,24.062,41.881,23.832z"/>
		<path fill-rule="evenodd" clip-rule="evenodd" fill="none" stroke="#83B900" stroke-miterlimit="10" d="M40.44,10.881
			c-2.847,0.002-5.156-2.298-5.185-5.167c-0.027-2.819,2.309-5.186,5.15-5.214c2.83-0.028,5.246,2.376,5.233,5.208
			C45.628,8.533,43.272,10.877,40.44,10.881z"/>
	</g>
</g>
</svg>
