<?xml version="1.0" encoding="utf-8"?>
<!-- Generator: Adobe Illustrator 16.0.0, SVG Export Plug-In . SVG Version: 6.00 Build 0)  -->
<!DOCTYPE svg PUBLIC "-//W3C//DTD SVG 1.1//EN" "http://www.w3.org/Graphics/SVG/1.1/DTD/svg11.dtd">
<svg version="1.1" id="Vrstva_1" xmlns="http://www.w3.org/2000/svg" xmlns:xlink="http://www.w3.org/1999/xlink" x="0px" y="0px"
	 width="218px" height="64px" viewBox="0 0 218 64" enable-background="new 0 0 218 64" xml:space="preserve">
<g>
	<path fill="none" stroke="#83B900" stroke-miterlimit="10" d="M40.936,12.468v27.464c0,0.884-0.725,1.607-1.607,1.607h-0.013
		c-0.885,0-1.608-0.723-1.608-1.607V12.468 M14.685,12.468v27.464c0,0.884-0.724,1.607-1.608,1.607h-0.013
		c-0.884,0-1.608-0.723-1.608-1.607V12.468 M17.366,12.467c0.269-1.256,0.8-2.413,1.533-3.414c1.635-2.233,4.278-2.447,7.257-2.447
		c3.001,0,5.659,0.236,7.292,2.496c0.716,0.99,1.234,2.132,1.499,3.368 M19.903,12.468c0.182-0.603,0.598-1.396,0.887-1.815
		c1.418-2.069,2.37-1.776,5.366-1.802c3.001-0.027,4.137-0.133,5.771,2.126c0.283,0.394,0.556,0.922,0.796,1.493 M2.968,33.843
		v16.436c0,0.737,0.604,1.339,1.34,1.339h44.033c0.735,0,1.338-0.603,1.338-1.339V33.843 M14.685,35.138
		c2.593,0.215,5.3,0.404,7.819,0.509 M40.936,34.857c5.168-0.493,9.217-1.014,9.217-1.014c0.735,0,1.339-0.603,1.339-1.339V13.808
		c0-0.737-0.604-1.34-1.339-1.34H2.16c-0.736,0-1.34,0.603-1.34,1.34v18.696c0,0.737,0.604,1.339,1.34,1.339
		c0,0,4.087,0.515,9.293,1.007 M29.889,35.655c2.519-0.101,5.227-0.288,7.818-0.505 M29.889,38.215h-7.385v-4.963h7.385V38.215z"/>
	<g>
		<path fill="#83B900" d="M82.654,43.058V20.942h-1.308v9.324c0,4.774,0.022,8.375,0.068,10.702l0.028,1.496L68.481,20.942h-2.265
			v22.116h1.308v-9.29c0-4.655-0.022-8.267-0.068-10.737l-0.027-1.492l12.962,21.519H82.654z"/>
		<path fill="#83B900" d="M92.786,43.228c2.234,0,3.748-0.653,4.63-1.996l0.734-1.119v2.944h1.272v-10.48
			c0-4.192-1.938-6.23-5.923-6.23c-1.75,0-3.25,0.343-4.462,1.02v1.291c1.317-0.756,2.741-1.139,4.24-1.139
			c1.782,0,3.058,0.442,3.792,1.315c0.716,0.853,1.08,2.112,1.08,3.743v1.182h-3.767c-2.014,0-3.645,0.438-4.85,1.302
			c-1.181,0.846-1.754,1.957-1.754,3.398c0,1.462,0.453,2.596,1.385,3.464C90.105,42.801,91.29,43.228,92.786,43.228z
			 M90.532,35.885c0.862-0.677,2.158-1.021,3.852-1.021h3.767v2.882c0,1.267-0.456,2.328-1.354,3.151
			c-0.888,0.814-2.037,1.227-3.415,1.227c-1.381,0-2.435-0.334-3.132-0.994c-0.702-0.665-1.06-1.534-1.06-2.585
			C89.189,37.48,89.642,36.585,90.532,35.885z"/>
		<g>
			<path fill="#83B900" d="M113.108,36.259c-0.81-0.724-1.886-1.363-3.199-1.9c-1.372-0.559-2.354-1.021-2.917-1.374
				c-0.481-0.346-0.814-0.716-1.013-1.113c-0.2-0.4-0.298-0.919-0.298-1.589c0-0.725,0.343-1.368,1.017-1.91
				c0.649-0.521,1.528-0.786,2.614-0.786c1.56,0,2.874,0.226,3.917,0.673v-1.18c-0.915-0.419-2.141-0.632-3.646-0.632
				c-1.597,0-2.885,0.388-3.828,1.152c-0.93,0.754-1.381,1.709-1.381,2.919c0,1.218,0.355,2.127,1.089,2.778
				c0.776,0.691,1.857,1.313,3.213,1.848c1.456,0.575,2.484,1.112,3.146,1.641c0.72,0.576,1.085,1.356,1.085,2.318
				s-0.354,1.731-1.052,2.286c-0.672,0.531-1.642,0.8-2.885,0.8c-1.581,0-3.091-0.346-4.495-1.029v1.235
				c1.172,0.574,2.637,0.865,4.359,0.865c1.799,0,3.171-0.386,4.078-1.147c0.899-0.754,1.336-1.728,1.336-2.975
				C114.25,37.888,113.877,36.946,113.108,36.259z"/>
			<polygon fill="#83B900" points="110.683,23.95 114.094,19.65 112.938,19.65 109.824,23.524 106.674,19.65 105.517,19.65 
				108.928,23.95 			"/>
		</g>
		<path fill="#83B900" d="M118.042,34.805c0,2.563,0.767,4.63,2.279,6.143c1.513,1.513,3.517,2.28,5.956,2.28
			c1.645,0,3.11-0.293,4.359-0.872v-1.162c-1.131,0.572-2.548,0.861-4.224,0.861c-2.017,0-3.661-0.542-4.887-1.612
			c-1.232-1.075-1.941-2.635-2.107-4.637l-0.036-0.433h12.267c0.05-0.384,0.075-0.866,0.075-1.436c0-2.402-0.594-4.28-1.767-5.58
			c-1.161-1.289-2.789-1.942-4.837-1.942c-2.075,0-3.734,0.734-5.072,2.245C118.717,30.165,118.042,32.232,118.042,34.805z
			 M121.229,29.208c1.047-1.097,2.374-1.653,3.943-1.653c1.57,0,2.847,0.511,3.795,1.52c0.939,1.002,1.417,2.353,1.417,4.014v1.182
			h-11.001l0.036-0.433C119.584,31.849,120.192,30.292,121.229,29.208z"/>
		<g>
			<polygon fill="#83B900" points="151.516,23.95 154.927,19.65 153.771,19.65 150.657,23.524 147.507,19.65 146.35,19.65 
				149.761,23.95 			"/>
			<path fill="#83B900" d="M153.941,36.259c-0.81-0.724-1.886-1.363-3.199-1.9c-1.372-0.559-2.354-1.021-2.917-1.374
				c-0.481-0.346-0.814-0.716-1.013-1.113c-0.2-0.4-0.298-0.919-0.298-1.589c0-0.725,0.343-1.368,1.017-1.91
				c0.649-0.521,1.528-0.786,2.614-0.786c1.56,0,2.874,0.226,3.917,0.673v-1.18c-0.915-0.419-2.141-0.632-3.646-0.632
				c-1.597,0-2.885,0.388-3.828,1.152c-0.93,0.754-1.381,1.709-1.381,2.919c0,1.218,0.355,2.127,1.089,2.778
				c0.776,0.691,1.857,1.313,3.213,1.848c1.456,0.575,2.484,1.112,3.146,1.641c0.72,0.576,1.085,1.356,1.085,2.318
				s-0.354,1.731-1.052,2.286c-0.672,0.531-1.642,0.8-2.885,0.8c-1.581,0-3.091-0.346-4.495-1.029v1.235
				c1.172,0.574,2.637,0.865,4.359,0.865c1.799,0,3.171-0.386,4.078-1.147c0.899-0.754,1.336-1.728,1.336-2.975
				C155.083,37.888,154.71,36.946,153.941,36.259z"/>
		</g>
		<g>
			<polygon fill="#83B900" points="169.356,43.058 170.913,43.058 163.951,34.406 170.639,26.62 169.145,26.62 162.475,34.423 			
				"/>
			<rect x="159.772" y="19.82" fill="#83B900" width="1.273" height="23.238"/>
		</g>
		<path fill="#83B900" d="M188.691,34.907c0-2.463-0.683-4.528-2.031-6.135c-1.35-1.608-3.146-2.39-5.49-2.39
			c-2.347,0-4.172,0.799-5.578,2.444c-1.402,1.641-2.113,3.698-2.113,6.115c0,2.418,0.688,4.453,2.046,6.048
			c1.36,1.599,3.173,2.375,5.543,2.375c2.371,0,4.19-0.772,5.563-2.361C187.998,39.42,188.691,37.369,188.691,34.907z
			 M185.685,40.049c-1.107,1.422-2.644,2.143-4.565,2.143c-1.924,0-3.471-0.732-4.6-2.177c-1.105-1.414-1.666-3.139-1.666-5.125
			c0-1.984,0.542-3.712,1.61-5.136c1.095-1.459,2.672-2.2,4.689-2.2s3.573,0.724,4.623,2.152c1.021,1.392,1.54,3.13,1.54,5.167
			C187.316,36.916,186.768,38.657,185.685,40.049z"/>
		<rect x="193.769" y="19.82" fill="#83B900" width="1.273" height="23.238"/>
		<path fill="#83B900" d="M207.477,42.877l6.055-16.257h-1.456c-3.121,8.555-4.744,13.066-4.963,13.792l-0.328,1.089l-6.003-14.88
			h-1.509l6.864,16.348l-0.05,0.145c-1.009,2.931-2.841,4.417-5.443,4.417c-0.242,0-0.495-0.023-0.756-0.069v1.223
			c0.285,0.057,0.584,0.086,0.892,0.086c1.4,0,2.669-0.419,3.771-1.246C205.66,46.692,206.645,45.128,207.477,42.877z"/>
	</g>
</g>
</svg>
