<?xml version="1.0" encoding="utf-8"?>
<!-- Generator: Adobe Illustrator 16.0.0, SVG Export Plug-In . SVG Version: 6.00 Build 0)  -->
<!DOCTYPE svg PUBLIC "-//W3C//DTD SVG 1.1//EN" "http://www.w3.org/Graphics/SVG/1.1/DTD/svg11.dtd">
<svg version="1.1" id="Vrstva_1" xmlns="http://www.w3.org/2000/svg" xmlns:xlink="http://www.w3.org/1999/xlink" x="0px" y="0px"
	 width="99.9px" height="84.744px" viewBox="0 0 99.9 84.744" enable-background="new 0 0 99.9 84.744" xml:space="preserve">
<g>
	<g>
		<g>
			<path opacity="0.4" fill-rule="evenodd" clip-rule="evenodd" fill="#FFFFFF" d="M50.771,29.393
				c8.305-6.024,16.441-11.925,24.571-17.833c4.155-3.017,8.285-6.062,12.444-9.072c3.258-2.352,6.101-1.911,8.51,1.282
				c0.428,0.568,0.835,1.155,1.241,1.74c2.171,3.116,1.76,5.913-1.325,8.167c-10.706,7.819-21.439,15.599-32.161,23.399
				c-1.604,1.167-3.192,2.355-4.985,3.679c1.848,2.586,3.605,5.064,5.387,7.523c1.333,1.85,2.736,3.652,4.033,5.533
				c1.745,2.529,1.279,4.85-1.399,6.284C60.555,63.599,53.96,67,47.449,70.409c-2.07-2.73-3.878-5.555-6.111-7.988
				c-7.504-8.184-17.182-11.733-28.011-12.568c-3.673-0.287-7.361-0.36-11.503-0.55c0.962-1.427,1.593-2.795,2.596-3.779
				c9.96-9.812,19.976-19.566,29.984-29.329c2.639-2.568,4.937-2.388,7.136,0.56c1.536,2.054,3.016,4.154,4.527,6.229
				C47.582,25.056,49.104,27.12,50.771,29.393z"/>
			<path fill="none" stroke="#83B900" stroke-width="2" stroke-miterlimit="10" d="M50.771,29.393
				c8.305-6.024,16.441-11.925,24.571-17.833c4.155-3.017,8.285-6.062,12.444-9.072c3.258-2.352,6.101-1.911,8.51,1.282
				c0.428,0.568,0.835,1.155,1.241,1.74c2.171,3.116,1.76,5.913-1.325,8.167c-10.706,7.819-21.439,15.599-32.161,23.399
				c-1.604,1.167-3.192,2.355-4.985,3.679c1.848,2.586,3.605,5.064,5.387,7.523c1.333,1.85,2.736,3.652,4.033,5.533
				c1.745,2.529,1.279,4.85-1.399,6.284C60.555,63.599,53.96,67,47.449,70.409c-2.07-2.73-3.878-5.555-6.111-7.988
				c-7.504-8.184-17.182-11.733-28.011-12.568c-3.673-0.287-7.361-0.36-11.503-0.55c0.962-1.427,1.593-2.795,2.596-3.779
				c9.96-9.812,19.976-19.566,29.984-29.329c2.639-2.568,4.937-2.388,7.136,0.56c1.536,2.054,3.016,4.154,4.527,6.229
				C47.582,25.056,49.104,27.12,50.771,29.393z"/>
		</g>
		<g>
			<path opacity="0.4" fill-rule="evenodd" clip-rule="evenodd" fill="#FFFFFF" d="M31.697,77.67
				c1.435,0.968,1.825,3.084,0.842,4.575c-0.981,1.489-3.059,1.95-4.543,1.01c-1.525-0.968-1.95-3.23-0.886-4.733
				C28.127,77.088,30.246,76.694,31.697,77.67z"/>
			<path fill="none" stroke="#83B900" stroke-width="2" stroke-miterlimit="10" d="M31.697,77.67
				c1.435,0.968,1.825,3.084,0.842,4.575c-0.981,1.489-3.059,1.95-4.543,1.01c-1.525-0.968-1.95-3.23-0.886-4.733
				C28.127,77.088,30.246,76.694,31.697,77.67z"/>
		</g>
		<g>
			<path opacity="0.4" fill-rule="evenodd" clip-rule="evenodd" fill="#FFFFFF" d="M38.908,72.849
				c-1.014,1.495-2.996,1.875-4.527,0.877c-1.603-1.053-2.001-3.13-0.888-4.664c1.058-1.456,3.047-1.774,4.548-0.728
				C39.555,69.391,39.932,71.345,38.908,72.849z"/>
			<path fill="none" stroke="#83B900" stroke-width="2" stroke-miterlimit="10" d="M38.908,72.849
				c-1.014,1.495-2.996,1.875-4.527,0.877c-1.603-1.053-2.001-3.13-0.888-4.664c1.058-1.456,3.047-1.774,4.548-0.728
				C39.555,69.391,39.932,71.345,38.908,72.849z"/>
		</g>
		<g>
			<path opacity="0.4" fill-rule="evenodd" clip-rule="evenodd" fill="#FFFFFF" d="M23.074,72.958
				c-1.512-0.975-1.997-2.995-1.076-4.497c0.976-1.588,3.139-2.045,4.68-0.99c1.449,0.992,1.858,3.058,0.896,4.546
				C26.586,73.546,24.625,73.958,23.074,72.958z"/>
			<path fill="none" stroke="#83B900" stroke-width="2" stroke-miterlimit="10" d="M23.074,72.958
				c-1.512-0.975-1.997-2.995-1.076-4.497c0.976-1.588,3.139-2.045,4.68-0.99c1.449,0.992,1.858,3.058,0.896,4.546
				C26.586,73.546,24.625,73.958,23.074,72.958z"/>
		</g>
		<path fill-rule="evenodd" clip-rule="evenodd" fill="none" stroke="#83B900" stroke-miterlimit="10" d="M50.857,29.9
			c0,0-17.818,13.32-14.52,18.158c3.571,5.234,22.046-7.397,22.046-7.397"/>
	</g>
</g>
</svg>
