<?xml version="1.0" encoding="utf-8"?>
<!-- Generator: Adobe Illustrator 16.0.0, SVG Export Plug-In . SVG Version: 6.00 Build 0)  -->
<!DOCTYPE svg PUBLIC "-//W3C//DTD SVG 1.1//EN" "http://www.w3.org/Graphics/SVG/1.1/DTD/svg11.dtd">
<svg version="1.1" id="Vrstva_1" xmlns="http://www.w3.org/2000/svg" xmlns:xlink="http://www.w3.org/1999/xlink" x="0px" y="0px"
	 width="41.396px" height="55.14px" viewBox="0 0 41.396 55.14" enable-background="new 0 0 41.396 55.14" xml:space="preserve">
<g>
	<path fill-rule="evenodd" clip-rule="evenodd" fill="none" stroke="#83B900" stroke-width="1.1782" stroke-miterlimit="10" d="
		M15.502,41.365c-1.204,0.141-2.445,0.188-3.71,0.126c-3.669-0.184-6.917-1.344-9.411-4.17c-0.865-0.98-1.522-2.089-1.737-3.405
		c-0.205-1.244,0.159-1.903,1.344-2.303c1.404-0.472,2.856-0.82,4.238-1.349c2.267-0.868,3.507-2.631,3.941-4.97
		c0.237-1.284-0.196-2.392-1.221-3.174c-0.728-0.555-1.562-0.979-2.372-1.416c-0.49-0.265-1.028-0.442-1.544-0.659
		c-2.241-0.935-2.643-1.658-2.204-4.063c0.438-2.398,1.624-4.437,3.247-6.2c4.042-4.387,8.879-7.526,14.761-8.795
		c7.359-1.585,14.427,1.634,18.132,8.184c2.079,3.673,2.275,7.59,1.196,11.606c-0.916,3.406-2.624,6.375-4.998,8.974
		c-3.137,3.434-7.402,6.895-11.034,8.819c-0.325,0.181-0.657,0.353-0.993,0.518 M13.263,13.766c-0.542,0.444-1.153,0.858-1.655,1.38
		c-0.863,0.896-1.151,1.965-0.615,3.156c0.555,1.233,1.471,2.048,2.866,2.013c1.977-0.052,3.569-0.943,4.642-2.609
		c0.777-1.205,0.548-2.43-0.248-3.558c-0.739-1.045-1.851-1.419-3.168-1.052C14.477,13.265,13.897,13.528,13.263,13.766z"/>
	<g>
		<g>
			<path fill="#83B900" d="M32.953,13.936c0,0,1.257,2.852-0.13,6.453c-0.835,2.163-2.094,3.007-3.098,3.212
				C25.831,35.362,16.8,49.67,14.963,52.024c-1.556,1.992-2.423,2.231-2.75,2.231c-0.103,0-0.152-0.023-0.152-0.023
				s-1.032-0.472,0.181-3.613c1.075-2.785,7.281-18.512,14.61-28.5h0.003c-0.414-0.936-0.458-2.453,0.823-4.387
				C29.81,14.517,32.953,13.936,32.953,13.936 M33.479,12.939l-0.688,0.127c-0.143,0.026-3.538,0.689-5.851,4.178
				c-1.4,2.113-1.354,3.743-1.076,4.729c-7.193,9.979-13.288,25.321-14.448,28.328c-1.403,3.636-0.144,4.544,0.276,4.735
				c0.088,0.043,0.267,0.104,0.52,0.104c0.955,0,2.114-0.865,3.446-2.571c2.159-2.768,10.881-16.858,14.756-28.246
				c0.964-0.344,2.319-1.249,3.232-3.615c1.501-3.897,0.172-6.998,0.114-7.128L33.479,12.939L33.479,12.939z"/>
		</g>
		<path fill-rule="evenodd" clip-rule="evenodd" fill="none" stroke="#83B900" stroke-width="0.5891" stroke-miterlimit="10" d="
			M27.685,17.735c-1.479,2.232-1.194,3.906-0.613,4.777c0.403,0.602,0.927,0.812,0.927,0.812s0.568,0.354,1.29,0.331
			c1.049-0.028,2.579-0.768,3.541-3.265c1.387-3.6,0.13-6.45,0.13-6.45S29.814,14.518,27.685,17.735z"/>
		<path fill-rule="evenodd" clip-rule="evenodd" fill="none" stroke="#83B900" stroke-width="0.5891" stroke-miterlimit="10" d="
			M26.858,22.121c-7.329,9.989-13.536,25.716-14.611,28.501c-1.211,3.139-0.179,3.614-0.179,3.614s0.853,0.413,2.901-2.211
			c1.837-2.353,10.868-16.659,14.763-28.421"/>
	</g>
	
		<circle fill-rule="evenodd" clip-rule="evenodd" fill="none" stroke="#83B900" stroke-width="0.5891" stroke-miterlimit="10" cx="12.278" cy="34.817" r="2.881"/>
	<path fill-rule="evenodd" clip-rule="evenodd" fill="none" stroke="#83B900" stroke-width="0.5891" stroke-miterlimit="10" d="
		M22.018,29.057c-1.593,0-2.882,1.291-2.882,2.882c0,0.702,0.252,1.347,0.672,1.848"/>
	<path fill-rule="evenodd" clip-rule="evenodd" fill="none" stroke="#83B900" stroke-width="0.5891" stroke-miterlimit="10" d="
		M28.822,27.066c0.507,0.825,1.417,1.375,2.457,1.375c1.59,0,2.88-1.29,2.88-2.881c0-1.393-0.987-2.553-2.299-2.822"/>
	<path fill-rule="evenodd" clip-rule="evenodd" fill="none" stroke="#83B900" stroke-width="0.5891" stroke-miterlimit="10" d="
		M33.894,18.108c0.438,0.271,0.956,0.428,1.509,0.428c1.592,0,2.882-1.29,2.882-2.882c0-1.591-1.29-2.881-2.882-2.881
		c-0.758,0-1.448,0.294-1.963,0.773"/>
	
		<circle fill-rule="evenodd" clip-rule="evenodd" fill="none" stroke="#83B900" stroke-width="0.5891" stroke-miterlimit="10" cx="28.965" cy="7.68" r="2.881"/>
</g>
</svg>
