<?xml version="1.0" encoding="utf-8"?>
<!-- Generator: Adobe Illustrator 16.0.0, SVG Export Plug-In . SVG Version: 6.00 Build 0)  -->
<!DOCTYPE svg PUBLIC "-//W3C//DTD SVG 1.1//EN" "http://www.w3.org/Graphics/SVG/1.1/DTD/svg11.dtd">
<svg version="1.1" id="Vrstva_1" xmlns="http://www.w3.org/2000/svg" xmlns:xlink="http://www.w3.org/1999/xlink" x="0px" y="0px"
	 width="14.533px" height="19.219px" viewBox="0 0 14.533 19.219" enable-background="new 0 0 14.533 19.219" xml:space="preserve">
<path fill-rule="evenodd" clip-rule="evenodd" fill="#252525" d="M5.363,14.262c1.755-2.777,3.381-5.575,5.008-8.319
	C9.763,5.7,9.196,5.525,8.68,5.255C7.85,4.821,7.832,4.716,8.078,3.83c0.348-1.254,0.839-2.447,1.504-3.569
	c0.122-0.204,0.271-0.278,0.487-0.257c2.114,0.207,3.703,1.192,4.421,3.31c0.045,0.129,0.051,0.281,0.034,0.419
	c-0.134,1.249-0.596,2.397-1.096,3.532c-0.927,2.103-1.95,4.155-3.204,6.084c-1.166,1.795-2.494,3.464-3.988,4.996
	c-0.69,0.708-1.518,1.003-2.52,0.822c-1.557-0.281-2.79-1.018-3.618-2.392c-0.122-0.202-0.139-0.346-0.006-0.563
	c0.773-1.261,1.679-2.404,2.816-3.358c0.2-0.168,0.358-0.206,0.602-0.083C4.216,13.126,4.877,13.529,5.363,14.262z"/>
</svg>
