<?xml version="1.0" encoding="utf-8"?>
<!-- Generator: Adobe Illustrator 16.0.0, SVG Export Plug-In . SVG Version: 6.00 Build 0)  -->
<!DOCTYPE svg PUBLIC "-//W3C//DTD SVG 1.1//EN" "http://www.w3.org/Graphics/SVG/1.1/DTD/svg11.dtd">
<svg version="1.1" id="Vrstva_1" xmlns="http://www.w3.org/2000/svg" xmlns:xlink="http://www.w3.org/1999/xlink" x="0px" y="0px"
	 width="123.276px" height="100.56px" viewBox="0 0 123.276 100.56" enable-background="new 0 0 123.276 100.56"
	 xml:space="preserve">
<g>
	<g>
		<path opacity="0.4" fill="#FFFFFF" d="M19.931,99.81c-6.021,0-11.713-2.884-15.228-7.714l-0.365-0.5
			C-1.756,83.218,0.1,71.444,8.474,65.348l6.635-4.827l-0.931-1.28c-0.4-0.548-0.563-1.223-0.456-1.898
			c0.106-0.674,0.467-1.267,1.016-1.667l6.088-4.429c0.438-0.319,0.956-0.488,1.5-0.488c0.818,0,1.591,0.392,2.068,1.049l0.93,1.279
			l49.725-36.185l-0.931-1.28c-0.828-1.14-0.576-2.74,0.563-3.568l6.087-4.43c0.437-0.318,0.955-0.487,1.498-0.487
			c0.816,0,1.59,0.392,2.068,1.048l0.932,1.282l7.062-5.139c3.217-2.341,7.026-3.578,11.018-3.578
			c6.021,0,11.713,2.884,15.229,7.715l0.365,0.503c6.094,8.374,4.239,20.147-4.136,26.244l-7.062,5.139l0.93,1.278
			c0.401,0.552,0.563,1.229,0.456,1.905c-0.107,0.675-0.47,1.266-1.021,1.664l-6.084,4.428c-0.439,0.319-0.958,0.487-1.5,0.487l0,0
			c-0.817,0-1.59-0.392-2.068-1.047l-0.931-1.282L47.8,83.97l0.93,1.28c0.4,0.548,0.563,1.223,0.456,1.898
			c-0.106,0.676-0.469,1.269-1.02,1.668l-6.085,4.43c-0.438,0.318-0.956,0.487-1.499,0.487c-0.817,0-1.591-0.393-2.068-1.05
			l-0.932-1.278l-6.633,4.826C27.732,98.572,23.922,99.81,19.931,99.81z"/>
		<g>
			<path fill="#83B900" d="M103.343,1.5c5.586,0,11.104,2.57,14.623,7.406l0.364,0.502c5.837,8.02,4.051,19.358-3.97,25.197
				l-7.668,5.58l1.371,1.885c0.584,0.802,0.407,1.938-0.397,2.52l-6.086,4.43c-0.319,0.232-0.69,0.343-1.059,0.343
				c-0.559,0-1.11-0.256-1.462-0.739l-1.372-1.888L46.752,83.805l1.371,1.886c0.585,0.801,0.405,1.937-0.397,2.519l-6.086,4.431
				c-0.318,0.231-0.689,0.343-1.058,0.343c-0.559,0-1.11-0.257-1.462-0.741l-1.373-1.885l-7.239,5.267
				c-3.187,2.319-6.896,3.435-10.577,3.435c-5.585,0-11.103-2.57-14.621-7.405l-0.365-0.501c-5.836-8.022-4.051-19.359,3.971-25.199
				l5.604-4.079l1.637-1.188L14.784,58.8c-0.585-0.801-0.405-1.935,0.396-2.519l6.087-4.429c0.318-0.232,0.69-0.344,1.059-0.344
				c0.559,0,1.11,0.257,1.462,0.74l1.371,1.886l50.938-37.067l-1.372-1.886c-0.583-0.802-0.405-1.937,0.397-2.52l6.087-4.43
				c0.318-0.232,0.688-0.343,1.057-0.343c0.558,0,1.11,0.257,1.463,0.74l1.371,1.887L87.732,8.6l5.035-3.666
				C95.954,2.616,99.663,1.5,103.343,1.5 M103.343,0c-4.15,0-8.112,1.287-11.458,3.722L86.85,7.387l-1.419,1.032l-0.489-0.673
				c-0.622-0.852-1.622-1.358-2.677-1.358c-0.703,0-1.374,0.218-1.94,0.631l-6.086,4.429c-1.473,1.07-1.8,3.141-0.729,4.615
				l0.491,0.674L25.489,52.039L25,51.366c-0.617-0.85-1.617-1.358-2.675-1.358c-0.703,0-1.375,0.219-1.942,0.632l-6.086,4.428
				c-0.712,0.52-1.179,1.286-1.316,2.158c-0.138,0.874,0.073,1.747,0.592,2.458l0.488,0.671l-0.423,0.306l-5.605,4.08
				c-8.708,6.34-10.638,18.584-4.301,27.294l0.366,0.502c3.654,5.022,9.574,8.021,15.833,8.021c4.151,0,8.114-1.287,11.46-3.722
				l6.026-4.385l0.49,0.673c0.618,0.85,1.618,1.358,2.675,1.358c0.702,0,1.373-0.218,1.939-0.63l6.087-4.431
				c0.712-0.517,1.181-1.283,1.318-2.158c0.138-0.874-0.072-1.747-0.592-2.458l-0.488-0.671l48.51-35.303l0.49,0.673
				c0.619,0.851,1.619,1.357,2.675,1.357c0.701,0,1.372-0.218,1.939-0.629l6.088-4.431c0.71-0.513,1.179-1.278,1.317-2.151
				c0.14-0.875-0.07-1.75-0.59-2.464l-0.488-0.671l6.455-4.698c8.709-6.341,10.639-18.584,4.3-27.293l-0.363-0.5
				C115.522,3,109.603,0,103.343,0L103.343,0z"/>
		</g>
	</g>
	<g>
		<line fill="none" stroke="#83B900" stroke-miterlimit="10" x1="46.753" y1="83.804" x2="97.688" y2="46.736"/>
		<path fill="none" stroke="#83B900" stroke-miterlimit="10" d="M16.156,60.686l-7.241,5.268c-8.021,5.84-9.807,17.177-3.971,25.199
			l0.365,0.501c5.837,8.021,17.176,9.809,25.198,3.97l7.239-5.268"/>
		<line fill="none" stroke="#83B900" stroke-miterlimit="10" x1="76.096" y1="17.067" x2="25.159" y2="54.134"/>
		<path fill="none" stroke="#83B900" stroke-miterlimit="10" d="M106.692,40.186l7.668-5.58c8.021-5.839,9.807-17.178,3.97-25.197
			l-0.364-0.502c-5.838-8.022-17.177-9.809-25.198-3.972l-7.667,5.58"/>
		<path fill="none" stroke="#83B900" stroke-miterlimit="10" d="M79.989,19.35c-0.805,0.584-1.938,0.405-2.521-0.397l-2.745-3.772
			c-0.583-0.802-0.405-1.937,0.397-2.52l6.087-4.43c0.801-0.583,1.935-0.404,2.52,0.397l2.744,3.774
			c0.585,0.8,0.406,1.935-0.397,2.518L79.989,19.35z"/>
		<path fill="none" stroke="#83B900" stroke-miterlimit="10" d="M101.58,49.02c-0.804,0.583-1.937,0.405-2.521-0.396l-2.745-3.772
			c-0.583-0.802-0.404-1.937,0.397-2.52l6.088-4.429c0.802-0.584,1.937-0.406,2.52,0.396l2.744,3.771
			c0.584,0.802,0.407,1.938-0.397,2.52L101.58,49.02z"/>
		
			<rect x="77.167" y="26.749" transform="matrix(0.5884 0.8086 -0.8086 0.5884 60.7696 -62.0985)" fill="none" stroke="#83B900" stroke-miterlimit="10" width="28.422" height="3.778"/>
		<path fill="none" stroke="#83B900" stroke-miterlimit="10" d="M89.459,22.788l0.437-0.32c0.803-0.583,1.937-0.404,2.52,0.398
			l4.524,6.215c0.583,0.803,0.404,1.937-0.398,2.521l-0.438,0.318"/>
		<path fill="none" stroke="#83B900" stroke-miterlimit="10" d="M93.048,34.144l-3.654,2.658c-0.802,0.584-1.937,0.407-2.52-0.396
			l-4.523-6.216c-0.584-0.801-0.404-1.935,0.397-2.518l3.654-2.66"/>
		<circle fill="none" stroke="#83B900" stroke-miterlimit="10" cx="87.843" cy="30.947" r="0.716"/>
		<g>
			<path fill="none" stroke="#83B900" stroke-miterlimit="10" d="M42.858,81.521c0.803-0.583,1.937-0.403,2.521,0.398l2.744,3.772
				c0.585,0.801,0.405,1.937-0.397,2.519l-6.086,4.431c-0.803,0.583-1.937,0.404-2.52-0.398l-2.745-3.771
				c-0.583-0.804-0.405-1.937,0.396-2.521L42.858,81.521z"/>
			<path fill="none" stroke="#83B900" stroke-miterlimit="10" d="M21.267,51.853c0.802-0.584,1.938-0.406,2.521,0.396l2.744,3.772
				c0.585,0.801,0.407,1.936-0.397,2.521l-6.086,4.428c-0.803,0.584-1.937,0.406-2.52-0.397L14.784,58.8
				c-0.585-0.801-0.405-1.935,0.396-2.519L21.267,51.853z"/>
			
				<rect x="17.257" y="70.344" transform="matrix(-0.5884 -0.8086 0.8086 -0.5884 -8.4185 140.1815)" fill="none" stroke="#83B900" stroke-miterlimit="10" width="28.424" height="3.779"/>
			<path fill="none" stroke="#83B900" stroke-miterlimit="10" d="M33.389,78.084l-0.438,0.319c-0.803,0.583-1.936,0.404-2.521-0.398
				l-4.523-6.215c-0.584-0.803-0.405-1.935,0.398-2.519l0.436-0.318"/>
			<path fill="none" stroke="#83B900" stroke-miterlimit="10" d="M29.799,66.728l3.653-2.658c0.803-0.586,1.937-0.407,2.521,0.396
				l4.523,6.215c0.583,0.802,0.404,1.938-0.397,2.521l-3.654,2.658"/>
			<circle fill="none" stroke="#83B900" stroke-miterlimit="10" cx="35.002" cy="69.925" r="0.716"/>
		</g>
	</g>
</g>
</svg>
