<?xml version="1.0" encoding="utf-8"?>
<!-- Generator: Adobe Illustrator 16.0.0, SVG Export Plug-In . SVG Version: 6.00 Build 0)  -->
<!DOCTYPE svg PUBLIC "-//W3C//DTD SVG 1.1//EN" "http://www.w3.org/Graphics/SVG/1.1/DTD/svg11.dtd">
<svg version="1.1" id="Vrstva_1" xmlns="http://www.w3.org/2000/svg" xmlns:xlink="http://www.w3.org/1999/xlink" x="0px" y="0px"
	 width="13.717px" height="20.249px" viewBox="0 0 13.717 20.249" enable-background="new 0 0 13.717 20.249" xml:space="preserve">
<path fill-rule="evenodd" clip-rule="evenodd" fill="#252525" d="M6.842,20.249c-0.562-0.769-1.107-1.493-1.629-2.234
	c-1.59-2.263-3.068-4.593-4.172-7.139C0.627,9.922,0.267,8.949,0.092,7.917c-0.594-3.498,1.741-6.965,5.22-7.745
	c3.942-0.884,7.763,1.739,8.342,5.729c0.199,1.375-0.094,2.679-0.57,3.958c-0.791,2.125-1.884,4.097-3.127,5.983
	c-0.927,1.406-1.929,2.764-2.898,4.142C7.005,20.059,6.941,20.127,6.842,20.249z M6.864,10.215c1.84,0,3.36-1.524,3.358-3.366
	C10.22,5.01,8.693,3.489,6.854,3.493c-1.833,0.004-3.36,1.521-3.359,3.337C3.495,8.695,5.009,10.215,6.864,10.215z"/>
</svg>
