<?xml version="1.0" encoding="utf-8"?>
<!-- Generator: Adobe Illustrator 16.0.0, SVG Export Plug-In . SVG Version: 6.00 Build 0)  -->
<!DOCTYPE svg PUBLIC "-//W3C//DTD SVG 1.1//EN" "http://www.w3.org/Graphics/SVG/1.1/DTD/svg11.dtd">
<svg version="1.1" id="Vrstva_1" xmlns="http://www.w3.org/2000/svg" xmlns:xlink="http://www.w3.org/1999/xlink" x="0px" y="0px"
	 width="117.974px" height="75.868px" viewBox="0 0 117.974 75.868" enable-background="new 0 0 117.974 75.868"
	 xml:space="preserve">
<g>
	
		<rect x="1.5" y="42.526" fill-rule="evenodd" clip-rule="evenodd" fill="none" stroke="#94C400" stroke-miterlimit="10" width="38.324" height="31.843"/>
	
		<rect x="39.824" y="32.421" fill-rule="evenodd" clip-rule="evenodd" fill="none" stroke="#94C400" stroke-miterlimit="10" width="38.325" height="41.948"/>
	
		<rect x="78.149" y="52.632" fill-rule="evenodd" clip-rule="evenodd" fill="none" stroke="#94C400" stroke-miterlimit="10" width="38.324" height="21.737"/>
	<g>
		<path fill="#94C400" d="M78.149,32.421v20.211h38.324v21.737H78.149H39.824H1.5V42.526h38.324V32.421H78.149 M79.649,30.921h-1.5
			H39.824h-1.5v1.5v8.605H1.5H0v1.5v31.843v1.5h1.5h38.324h38.325h38.324h1.5v-1.5V52.632v-1.5h-1.5H79.649V32.421V30.921
			L79.649,30.921z"/>
	</g>
	<polygon fill-rule="evenodd" clip-rule="evenodd" fill="none" stroke="#94C400" stroke-width="2" stroke-miterlimit="10" points="
		58.987,2.26 62.043,8.453 68.878,9.447 63.933,14.268 65.101,21.075 58.987,17.861 52.874,21.075 54.042,14.268 49.096,9.447 
		55.932,8.453 	"/>
	<polygon fill-rule="evenodd" clip-rule="evenodd" fill="none" stroke="#94C400" stroke-width="2" stroke-miterlimit="10" points="
		20.662,13.856 23.718,20.05 30.553,21.043 25.607,25.863 26.775,32.671 20.662,29.457 14.549,32.671 15.717,25.863 10.771,21.043 
		17.606,20.05 	"/>
	<polygon fill-rule="evenodd" clip-rule="evenodd" fill="none" stroke="#94C400" stroke-width="2" stroke-miterlimit="10" points="
		97.312,23.366 100.367,29.56 107.202,30.554 102.257,35.373 103.425,42.182 97.312,38.967 91.198,42.182 92.366,35.373 
		87.42,30.554 94.255,29.56 	"/>
</g>
</svg>
