<?xml version="1.0" encoding="utf-8"?>
<!-- Generator: Adobe Illustrator 16.0.0, SVG Export Plug-In . SVG Version: 6.00 Build 0)  -->
<!DOCTYPE svg PUBLIC "-//W3C//DTD SVG 1.1//EN" "http://www.w3.org/Graphics/SVG/1.1/DTD/svg11.dtd">
<svg version="1.1" id="Vrstva_1" xmlns="http://www.w3.org/2000/svg" xmlns:xlink="http://www.w3.org/1999/xlink" x="0px" y="0px"
	 width="41.796px" height="49.39px" viewBox="0 0 41.796 49.39" enable-background="new 0 0 41.796 49.39" xml:space="preserve">
<g>
	<g>
		<path fill="#83B900" d="M40.506,1.59l-4.805,16.73l-20.97,25.841l-2.464,3.034c-0.791,0.976-1.688,1.394-2.571,1.394
			c-0.778,0-1.547-0.324-2.227-0.876l-5.297-4.299c-1.451-1.178-1.968-2.97-0.482-4.802l2.464-3.034l20.97-25.841L40.506,1.59
			 M41.796,0l-1.665,0.882L24.749,9.029l-0.145,0.076l-0.103,0.127L3.532,35.073l-2.464,3.034c-1.617,1.994-1.382,4.321,0.6,5.929
			l5.297,4.299c0.85,0.69,1.794,1.055,2.731,1.055c0.832,0,2.062-0.293,3.193-1.689l2.464-3.034l20.97-25.841l0.103-0.127
			l0.046-0.156l4.805-16.73L41.796,0L41.796,0z"/>
	</g>
	
		<polygon fill-rule="evenodd" clip-rule="evenodd" fill="none" stroke="#83B900" stroke-width="0.5342" stroke-miterlimit="10" points="
		14.731,44.161 4.154,35.578 25.124,9.737 40.506,1.59 35.701,18.32 	"/>
	<g>
		<path fill-rule="evenodd" clip-rule="evenodd" fill="none" stroke="#83B900" stroke-width="0.5342" stroke-miterlimit="10" d="
			M28.177,13.18c0.997-1.228,1.017-2.863,0.042-3.654c-0.974-0.79-2.57-0.434-3.567,0.794"/>
	</g>
	<g>
		<path fill-rule="evenodd" clip-rule="evenodd" fill="none" stroke="#83B900" stroke-width="0.5342" stroke-miterlimit="10" d="
			M31.703,16.041c0.998-1.228,1.016-2.864,0.043-3.655c-0.975-0.789-2.572-0.434-3.569,0.794"/>
	</g>
	<g>
		<path fill-rule="evenodd" clip-rule="evenodd" fill="none" stroke="#83B900" stroke-width="0.5342" stroke-miterlimit="10" d="
			M35.229,18.902c0.996-1.228,1.016-2.865,0.042-3.655s-2.569-0.434-3.567,0.794"/>
	</g>
	
		<line fill-rule="evenodd" clip-rule="evenodd" fill="none" stroke="#83B900" stroke-width="0.5342" stroke-miterlimit="10" x1="32.212" y1="15.414" x2="13.045" y2="39.033"/>
	
		<line fill-rule="evenodd" clip-rule="evenodd" fill="none" stroke="#83B900" stroke-width="0.5342" stroke-miterlimit="10" x1="28.686" y1="12.553" x2="9.52" y2="36.173"/>
	
		<line fill-rule="evenodd" clip-rule="evenodd" fill="none" stroke="#83B900" stroke-width="0.5342" stroke-miterlimit="10" x1="6.063" y1="33.227" x2="16.639" y2="41.81"/>
	<path fill="none" stroke="#83B900" stroke-width="0.5342" stroke-miterlimit="10" d="M4.154,35.578L1.69,38.612
		c-1.485,1.832-0.969,3.624,0.482,4.802l5.297,4.299c1.452,1.18,3.312,1.315,4.798-0.518l2.464-3.034L4.154,35.578z"/>
	
		<line fill-rule="evenodd" clip-rule="evenodd" fill="none" stroke="#83B900" stroke-width="0.5342" stroke-miterlimit="10" x1="35.52" y1="4.134" x2="39.044" y2="6.994"/>
</g>
</svg>
